<svg width="21" height="22" viewBox="0 0 21 22" fill="none" xmlns="http://www.w3.org/2000/svg">
<path d="M14.4 0.6C14.4 0.44087 14.4632 0.288258 14.5757 0.175736C14.6883 0.0632141 14.8409 0 15 0H19.8C19.9591 0 20.1117 0.0632141 20.2243 0.175736C20.3368 0.288258 20.4 0.44087 20.4 0.6V6.6C20.4 6.75913 20.3368 6.91174 20.2243 7.02426C20.1117 7.13679 19.9591 7.2 19.8 7.2H18V21C18 21.1591 17.9368 21.3117 17.8243 21.4243C17.7117 21.5368 17.5591 21.6 17.4 21.6C17.2409 21.6 17.0883 21.5368 16.9757 21.4243C16.8632 21.3117 16.8 21.1591 16.8 21V7.2H15C14.8409 7.2 14.6883 7.13679 14.5757 7.02426C14.4632 6.91174 14.4 6.75913 14.4 6.6V0.6ZM13.2 2.4H4.968C4.27431 2.39986 3.60201 2.64013 3.06554 3.0799C2.52906 3.51967 2.16156 4.13177 2.0256 4.812L1.788 6H0.9C0.661305 6 0.432387 6.09482 0.263604 6.2636C0.0948211 6.43239 3.41363e-08 6.6613 3.41363e-08 6.9C3.41363e-08 7.13869 0.0948211 7.36761 0.263604 7.5364C0.432387 7.70518 0.661305 7.8 0.9 7.8H1.428L1.2948 8.472C0.921136 8.58127 0.592969 8.80874 0.35952 9.12029C0.126071 9.43184 -7.57612e-05 9.81069 3.41363e-08 10.2V15C3.41363e-08 15.4774 0.189642 15.9352 0.527208 16.2728C0.864773 16.6104 1.32261 16.8 1.8 16.8H15.6V8.4H2.532L3.2028 5.0472C3.28433 4.6393 3.50462 4.27223 3.8262 4.0084C4.14779 3.74456 4.55083 3.60025 4.9668 3.6H13.2V2.4ZM15.6 12.6C15.6 12.9183 15.4736 13.2235 15.2485 13.4485C15.0235 13.6736 14.7183 13.8 14.4 13.8C14.0817 13.8 13.7765 13.6736 13.5515 13.4485C13.3264 13.2235 13.2 12.9183 13.2 12.6C13.2 12.2817 13.3264 11.9765 13.5515 11.7515C13.7765 11.5264 14.0817 11.4 14.4 11.4C14.7183 11.4 15.0235 11.5264 15.2485 11.7515C15.4736 11.9765 15.6 12.2817 15.6 12.6ZM15.6 20.4C15.2817 20.4 14.9765 20.2736 14.7515 20.0485C14.5264 19.8235 14.4 19.5183 14.4 19.2V18H15.6V20.4ZM4.8 19.2V18H2.4V19.2C2.4 19.5183 2.52643 19.8235 2.75147 20.0485C2.97652 20.2736 3.28174 20.4 3.6 20.4C3.91826 20.4 4.22348 20.2736 4.44853 20.0485C4.67357 19.8235 4.8 19.5183 4.8 19.2ZM3.6 12.6C3.6 12.2817 3.72643 11.9765 3.95147 11.7515C4.17652 11.5264 4.48174 11.4 4.8 11.4C5.11826 11.4 5.42348 11.5264 5.64853 11.7515C5.87357 11.9765 6 12.2817 6 12.6C6 12.9183 5.87357 13.2235 5.64853 13.4485C5.42348 13.6736 5.11826 13.8 4.8 13.8C4.48174 13.8 4.17652 13.6736 3.95147 13.4485C3.72643 13.2235 3.6 12.9183 3.6 12.6Z" fill="#C2C2C2"/>
<path d="M3.7998 19.2002V19H3.40039V19.2002C3.40044 19.2532 3.42152 19.3043 3.45898 19.3418C3.49636 19.379 3.54689 19.4003 3.59961 19.4004L3.6 20.4L3.48145 20.3945C3.24597 20.3712 3.02289 20.2779 2.83984 20.1279L2.75147 20.0485C2.55451 19.8516 2.43349 19.5931 2.40625 19.3184L2.4 19.2V18H4.8V19.2L4.79395 19.3184C4.76671 19.5932 4.64549 19.8516 4.44853 20.0485L4.36035 20.1279C4.14681 20.3029 3.8785 20.4 3.6 20.4L3.59961 19.4004C3.65252 19.4004 3.70373 19.3791 3.74121 19.3418C3.77867 19.3043 3.79975 19.2532 3.7998 19.2002ZM15.6 18V20.4L15.4814 20.3945C15.2069 20.3673 14.9484 20.2452 14.7515 20.0485C14.5545 19.8516 14.4335 19.5931 14.4062 19.3184L14.4 19.2V18H15.6ZM3.41363e-08 15V10.2C-6.62934e-05 9.85932 0.096772 9.52681 0.277344 9.24023L0.35952 9.12029C0.592969 8.80874 0.921136 8.58127 1.2948 8.472L1.428 7.8H0.9C0.69116 7.8 0.490223 7.7269 0.330078 7.5957L0.263604 7.5364C0.0948211 7.36761 3.41363e-08 7.13869 3.41363e-08 6.9C3.41363e-08 6.6613 0.0948211 6.43239 0.263604 6.2636C0.41139 6.11582 0.605334 6.02526 0.811523 6.00488L0.9 6H1.788L2.0256 4.812C2.1446 4.21709 2.44073 3.67386 2.87207 3.25293L3.06554 3.0799C3.53492 2.69512 4.10829 2.46306 4.70898 2.41113L4.968 2.4H13.2V3.6H4.9668C4.55083 3.60025 4.14779 3.74456 3.8262 4.0084L3.70996 4.1123C3.45153 4.36475 3.27415 4.6906 3.2028 5.0472L2.532 8.4H15.6V16.8H1.8L1.7998 15.7998H14.5996V14.7891C14.5336 14.7951 14.4672 14.7998 14.4004 14.7998C13.8169 14.7998 13.2573 14.5679 12.8447 14.1553C12.4321 13.7427 12.2002 13.1831 12.2002 12.5996C12.2003 12.0163 12.4322 11.4564 12.8447 11.0439C13.2573 10.6316 13.8171 10.4004 14.4004 10.4004C14.4672 10.4004 14.5336 10.4041 14.5996 10.4102V9.40039H1.68262L1.5752 9.43164C1.40933 9.48019 1.26385 9.58148 1.16016 9.71973C1.08235 9.82356 1.03137 9.94447 1.01074 10.0713L1 10.2002V15C1 15.2121 1.08441 15.4154 1.23438 15.5654C1.38436 15.7154 1.5877 15.7998 1.7998 15.7998L1.8 16.8L1.62207 16.791C1.26892 16.7559 0.933701 16.6175 0.65918 16.3926L0.527208 16.2728C0.231854 15.9774 0.0496647 15.5898 0.0087891 15.1777L3.41363e-08 15ZM6 12.6C5.99991 12.3218 5.90322 12.0532 5.72852 11.8398L5.64853 11.7515C5.4517 11.5546 5.19351 11.4336 4.91895 11.4062L4.8 11.4C4.48174 11.4 4.17652 11.5264 3.95147 11.7515L3.87207 11.8398C3.69722 12.0533 3.60009 12.3217 3.6 12.6L3.60547 12.7188C3.63275 12.9933 3.75476 13.2517 3.95147 13.4485C4.14844 13.6455 4.40685 13.7667 4.68164 13.7939L4.8 13.8C5.07847 13.8 5.34701 13.7033 5.56055 13.5283L5.64853 13.4485C5.84535 13.2517 5.96684 12.9934 5.99414 12.7188L6 12.6ZM18 7.2V21L17.9883 21.1172C17.9653 21.2326 17.9086 21.3398 17.8243 21.4243L17.7324 21.499C17.6347 21.5641 17.5191 21.5999 17.4 21.6L17.2822 21.5879C17.2055 21.5725 17.1325 21.5424 17.0674 21.499L16.9757 21.4243C16.8914 21.3398 16.8345 21.2325 16.8115 21.1172L16.8 21V7.2H15L14.8828 7.18848C14.8058 7.17314 14.7323 7.14315 14.667 7.09961L14.5757 7.02426C14.4914 6.93993 14.4352 6.833 14.4121 6.71777L14.4 6.6V0.6C14.4 0.44087 14.4632 0.288258 14.5757 0.175736C14.6602 0.0913595 14.7674 0.0347057 14.8828 0.0117188L15 0H19.8L19.918 0.0117188C20.0332 0.0348192 20.14 0.0914345 20.2243 0.175736C20.3368 0.288258 20.4 0.44087 20.4 0.6V6.6L20.3887 6.71777C20.3656 6.83302 20.3086 6.93991 20.2243 7.02426L20.1328 7.09961C20.0677 7.14296 19.9946 7.17311 19.918 7.18848L19.8 7.2H18ZM15.4004 6.2002H19.4004V1H15.4004V6.2002ZM6.98926 12.8174C6.93927 13.321 6.71643 13.7943 6.35547 14.1553C5.94289 14.5679 5.38328 14.7998 4.7998 14.7998C4.2164 14.7998 3.65667 14.5678 3.24414 14.1553C2.83174 13.7427 2.59961 13.1829 2.59961 12.5996C2.59971 12.0163 2.83165 11.4564 3.24414 11.0439C3.65666 10.6315 4.21644 10.4004 4.7998 10.4004C5.38314 10.4004 5.94292 10.6315 6.35547 11.0439C6.76796 11.4564 6.9999 12.0163 7 12.5996L6.98926 12.8174ZM13.2061 12.7188C13.2334 12.9934 13.3546 13.2517 13.5515 13.4485C13.7483 13.6454 14.0066 13.7666 14.2812 13.7939L14.4 13.8C14.7183 13.8 15.0235 13.6736 15.2485 13.4485C15.4736 13.2235 15.6 12.9183 15.6 12.6C15.6 12.2817 15.4736 11.9765 15.2485 11.7515C15.0516 11.5546 14.7933 11.4335 14.5186 11.4062L14.4 11.4C14.0817 11.4 13.7765 11.5264 13.5515 11.7515L13.4717 11.8398C13.2969 12.0532 13.2001 12.3218 13.2 12.6L13.2061 12.7188Z" fill="#C2C2C2"/>
</svg>
