<svg width="64" height="64" viewBox="0 0 64 64" fill="none" xmlns="http://www.w3.org/2000/svg">
<path d="M38.8112 58.4897C30.8546 58.4897 22.961 58.5212 15.0516 58.474C11.4035 58.4582 8.76179 54.7338 8.76179 51.0803C8.74607 36.8913 8.74607 22.718 8.76179 8.529C8.76179 4.87545 11.4192 3.16678 15.0673 3.15103C22.0332 3.10379 28.9991 3.13528 35.9493 3.13528C36.0594 3.13528 36.1695 3.16678 36.3582 3.18253C36.3582 3.41875 36.3582 3.62347 36.3582 3.8282C36.3582 6.45813 36.3424 9.08805 36.3582 11.718C36.3739 15.0251 38.481 17.5763 41.6416 18.1274C42.0819 18.2062 42.5379 18.2062 42.9939 18.2062C45.557 18.2062 48.1358 18.2062 50.6988 18.2062C50.9033 18.2062 51.1234 18.2062 51.375 18.2062C51.375 25.5448 51.375 32.8204 51.375 40.1747C47.7427 33.3873 40.3207 32.2849 35.6663 34.1117C30.3514 36.2062 27.1751 41.2771 27.6154 47.1039C28.0557 52.8362 32.1126 56.9622 38.8112 58.4897ZM30.0998 30.8204C34.1253 30.8204 38.135 30.8204 42.1605 30.8204C42.3492 30.8204 42.5536 30.8361 42.7423 30.8046C43.4184 30.7416 43.8902 30.2062 43.8902 29.5448C43.8902 28.8676 43.4184 28.3794 42.7108 28.3322C42.5379 28.3164 42.3649 28.3164 42.1762 28.3164C34.1096 28.3164 26.0587 28.3164 17.992 28.3164C17.8033 28.3164 17.5989 28.3164 17.4102 28.3322C16.7341 28.3952 16.2781 28.9306 16.2938 29.6078C16.3252 30.3479 16.8599 30.8204 17.7404 30.8204C21.8602 30.8204 25.98 30.8204 30.0998 30.8204ZM32.0339 21.0015C28.6375 21.0015 25.2567 21.0015 21.8602 21.0015C21.6873 21.0015 21.5143 21.0015 21.3256 21.0015C20.5551 21.0645 20.0519 21.5684 20.0677 22.2771C20.0677 22.9857 20.5708 23.4739 21.3571 23.5211C21.4986 23.5369 21.6244 23.5211 21.7659 23.5211C28.5746 23.5211 35.3675 23.5211 42.1762 23.5211C42.4435 23.5211 42.7266 23.5054 42.9939 23.4424C43.56 23.3007 43.9059 22.8125 43.8902 22.2141C43.8744 21.6471 43.5285 21.1904 42.9782 21.0645C42.7423 21.0015 42.475 21.0015 42.2234 21.0015C38.8112 21.0015 35.4304 21.0015 32.0339 21.0015ZM24.439 15.9936C24.785 15.9936 25.1466 15.9936 25.4926 15.9936C27.3795 15.9936 29.2507 16.0093 31.1377 15.9936C32.1126 15.9936 32.6786 15.3794 32.5529 14.529C32.4585 13.8518 31.9239 13.4581 31.0433 13.4581C26.6247 13.4581 22.2219 13.4581 17.8033 13.4581C17.6304 13.4581 17.4417 13.4739 17.2844 13.5054C16.5926 13.6471 16.1994 14.2455 16.2938 14.9542C16.4039 15.6156 16.9228 15.9936 17.7719 15.9936C20.0048 15.9936 22.2219 15.9936 24.439 15.9936ZM21.3413 34.5842C20.1306 34.5842 18.9198 34.5842 17.6933 34.5842C16.8442 34.5842 16.2938 35.0881 16.2938 35.8283C16.2938 36.5999 16.8127 37.0724 17.6775 37.0881C20.0834 37.1039 22.4892 37.1039 24.9108 37.0881C25.7756 37.0881 26.326 36.5999 26.326 35.8598C26.326 35.1038 25.7599 34.5999 24.8793 34.5999C23.6843 34.5842 22.5207 34.5842 21.3413 34.5842ZM20.6652 49.6708C21.6715 49.6708 22.6622 49.6708 23.6686 49.6708C24.5177 49.6551 25.0523 49.1669 25.0523 48.411C25.0523 47.6708 24.5334 47.1826 23.7 47.1826C21.6873 47.1669 19.6588 47.1669 17.6461 47.1826C16.8127 47.1826 16.2938 47.6708 16.2938 48.411C16.2781 49.1669 16.8284 49.6708 17.6618 49.6866C18.6682 49.6866 19.6745 49.6708 20.6652 49.6708ZM20.0519 40.8676C19.2657 40.8676 18.4795 40.8519 17.6933 40.8676C16.8284 40.8834 16.2938 41.3716 16.2938 42.1275C16.2938 42.8834 16.8127 43.3873 17.6775 43.4031C19.25 43.4188 20.8224 43.4188 22.3791 43.4031C23.2283 43.3873 23.7943 42.8834 23.7943 42.1432C23.7943 41.4188 23.244 40.8991 22.3949 40.8676C21.6244 40.8519 20.8382 40.8676 20.0519 40.8676Z" fill="#38A9FF"/>
<path d="M54.272 56.476C52.4572 54.6757 50.6424 52.8754 48.8118 51.0435C48.9539 50.775 49.0643 50.5855 49.159 50.396C50.8476 46.7164 50.6266 43.1632 48.2437 39.8942C45.8608 36.6568 42.5311 35.267 38.5701 35.8987C34.3408 36.5778 31.4845 39.1203 30.3956 43.2737C29.3067 47.3955 30.4745 51.0119 33.7885 53.6966C37.134 56.3971 40.8741 56.6813 44.7404 54.8336C45.1507 54.6441 45.3716 54.6441 45.6872 54.9758C47.3916 56.6971 49.0959 58.4185 50.8318 60.1082C52.2678 61.5138 54.5561 60.8979 55.0453 58.987C55.282 58.0237 54.9821 57.1867 54.272 56.476ZM40.1324 52.1805C36.5975 52.1647 33.8201 49.3379 33.8358 45.8163C33.8516 42.3735 36.708 39.5783 40.1639 39.5941C43.6515 39.6257 46.4763 42.4683 46.4447 45.9268C46.3974 49.4169 43.5726 52.1963 40.1324 52.1805Z" fill="#072135"/>
<path d="M38.9055 12.2692C38.8583 9.40303 38.8898 6.53689 38.8898 3.67074C38.8898 3.60775 38.9212 3.5605 38.9841 3.27704L38.9845 3.27745C43.1357 7.4348 47.1767 11.4819 51.2335 15.5605C51.0762 15.6865 51.0448 15.718 51.0133 15.718C48.1672 15.718 45.3368 15.7495 42.4907 15.718C40.588 15.7023 38.937 14.1432 38.9055 12.2692Z" fill="#072135"/>
</svg>
