<svg width="64" height="64" viewBox="0 0 64 64" fill="none" xmlns="http://www.w3.org/2000/svg">
<g clip-path="url(#clip0_62_327)">
<path d="M48.1479 29.1372C46.4495 29.1372 45.0777 30.509 45.0777 32.2074C45.0777 33.9058 46.4495 35.2776 48.1479 35.2776C49.8463 35.2776 51.218 33.9058 51.218 32.2074C51.218 30.509 49.8332 29.1372 48.1479 29.1372ZM15.8521 29.1372C14.1538 29.1372 12.782 30.509 12.782 32.2074C12.782 33.9058 14.1538 35.2776 15.8521 35.2776C17.5505 35.2776 18.9223 33.9058 18.9223 32.2074C18.9355 30.509 17.5505 29.1372 15.8521 29.1372ZM61.2255 19.1428V45.2066C61.2255 48.0024 58.9523 50.2757 56.1564 50.2757H7.84371C5.04789 50.2757 2.77466 48.0024 2.77466 45.2066V19.1428C2.77466 16.347 5.04789 14.0738 7.84371 14.0738H56.1695C58.9521 14.0738 61.2255 16.347 61.2255 19.1428ZM56.9011 24.6169C56.4961 24.7214 56.065 24.7737 55.6339 24.7737C52.7988 24.7737 50.5126 22.4743 50.5126 19.6524C50.5126 19.2212 50.5648 18.8032 50.6693 18.3982H13.0434C13.0957 18.6986 13.1349 19.0253 13.1349 19.3388C13.1349 22.1738 10.8355 24.4601 8.01355 24.4601C7.7 24.4601 7.39951 24.434 7.11209 24.3817V39.9547C7.39951 39.9024 7.7 39.8763 8.01355 39.8763C10.8486 39.8763 13.1349 42.1757 13.1349 44.9976C13.1349 45.3242 13.1087 45.6378 13.0434 45.9382H50.5517C50.5256 45.7292 50.5126 45.5202 50.5126 45.2981C50.5126 42.4631 52.8119 40.1768 55.6339 40.1768C56.0781 40.1768 56.4961 40.229 56.9011 40.3336V24.6169ZM43.0918 32.1682C43.0918 38.2824 38.1142 43.26 31.9999 43.26C25.8857 43.26 20.9081 38.2824 20.9081 32.1682C20.9081 26.054 25.8857 21.0764 31.9999 21.0764C38.1142 21.0764 43.0918 26.054 43.0918 32.1682ZM24.7623 28.1704H26.9441C27.3883 26.7072 28.0415 25.5183 28.7209 24.5777C27.0486 25.3093 25.6506 26.5766 24.7623 28.1704ZM26.5651 34.5198C26.4475 33.7882 26.3691 33.0174 26.3691 32.1682C26.3691 31.3321 26.4344 30.5482 26.5651 29.8166H24.0698C23.8477 30.5613 23.7301 31.3451 23.7301 32.1682C23.7301 32.9782 23.8477 33.7751 24.0698 34.5198H26.5651ZM28.7207 39.7718C28.0414 38.8311 27.3882 37.6423 26.944 36.179H24.7622C25.6506 37.7729 27.0486 39.0402 28.7207 39.7718ZM31.1639 36.179H28.7078C29.361 37.9819 30.367 39.2753 31.1639 40.0853V36.179ZM31.1639 29.8296H28.2375C28.0938 30.5482 28.0154 31.3321 28.0154 32.1813C28.0154 33.0305 28.0938 33.8013 28.2375 34.5329H31.1509V29.8296H31.1639ZM31.1639 24.2511C30.3539 25.0611 29.348 26.3414 28.6947 28.1704H31.1639V24.2511ZM35.2793 24.5777C35.9586 25.5183 36.6119 26.7072 37.0561 28.1704H39.2378C38.3494 26.5766 36.9514 25.3093 35.2793 24.5777ZM32.8361 28.1704H35.2922C34.639 26.3675 33.633 25.0742 32.8361 24.2641V28.1704ZM32.8361 34.5198H35.7625C35.9062 33.8013 35.9846 33.0174 35.9846 32.1682C35.9846 31.319 35.9062 30.5482 35.7625 29.8166H32.8491V34.5198H32.8361ZM32.8361 40.0984C33.6461 39.2884 34.652 38.0081 35.3053 36.179H32.8361V40.0984ZM39.2377 36.179H37.0559C36.6117 37.6423 35.9585 38.8311 35.2791 39.7718C36.9514 39.0402 38.3494 37.7729 39.2377 36.179ZM39.9303 29.8296H37.4349C37.5525 30.5613 37.6309 31.3321 37.6309 32.1813C37.6309 33.0174 37.5656 33.8013 37.4349 34.5329H39.9303C40.1524 33.7882 40.2699 33.0043 40.2699 32.1813C40.2698 31.3582 40.1522 30.5743 39.9303 29.8296Z" fill="#38A9FF"/>
<path d="M44.9732 62.2045H32.6794L40.884 54H49.8724V57.3053C49.8724 60.0097 47.6775 62.2045 44.9732 62.2045Z" fill="#072135"/>
<path d="M26.722 62.5703C24.8146 64.4778 21.7052 64.4778 19.7978 62.5703L11.2405 54.0131H35.2793L26.722 62.5703Z" fill="#072135"/>
<path d="M36.6379 1.47956L27.7801 10.3373H52.655L43.7972 1.47956C41.8245 -0.493187 38.6106 -0.493187 36.6379 1.47956Z" fill="#072135"/>
<path d="M18.7396 2.02827H31.4514L23.1554 10.3373H13.6705V7.09732C13.6705 4.30151 15.9437 2.02827 18.7396 2.02827Z" fill="#072135"/>
</g>
<defs>
<clipPath id="clip0_62_327">
<rect width="64" height="64" fill="white"/>
</clipPath>
</defs>
</svg>
