<svg width="64" height="64" viewBox="0 0 64 64" fill="none" xmlns="http://www.w3.org/2000/svg">
<path d="M64 47.5C64 48 64 48.5 64 49C63.9625 49.075 63.9125 49.15 63.9 49.225C63.575 50.9125 62.6 52.1125 61.1375 52.9625C57.4 55.1375 53.65 57.3125 49.9125 59.5C46.45 61.525 42.7 62.4625 38.7 62.4625C30.5125 62.45 22.325 62.4625 14.15 62.4625C13.95 62.4625 13.7375 62.4625 13.4625 62.4625C13.4625 62.175 13.4625 61.95 13.4625 61.725C13.4625 55.875 13.4625 50.025 13.4625 44.1625C13.4625 42.0875 14.3375 40.9 16.4125 40.5625C18.575 40.2125 20.775 40.225 22.9375 40.6125C23.9375 40.8 24.7 41.35 25.275 42.225C26.5 44.075 28.25 45.025 30.475 45.0375C32.5 45.05 34.5125 45.025 36.5375 45.05C38.0125 45.0625 38.9375 46.1875 38.6125 47.5C38.3875 48.425 37.6 48.975 36.4875 48.975C32.9875 48.975 29.4875 48.975 25.9875 48.975C24.65 48.975 23.7625 50.1375 24.1 51.375C24.325 52.175 25.025 52.725 25.9125 52.7375C26.8875 52.75 27.875 52.7375 28.85 52.7375C32.2625 52.7375 35.6875 52.675 39.1 52.75C43.0375 52.8375 46.7125 51.975 50.2625 50.3C54.225 48.425 58.25 46.675 62.25 44.8625C62.3625 44.8125 62.475 44.775 62.6125 44.725C63.425 45.5125 63.7125 46.5 64 47.5ZM2.4875 41.925C1.3125 41.9 0.4625 42.2625 0 43.375C0 49.25 0 55.125 0 61C0.4375 62.0875 1.25 62.4875 2.4125 62.4625C4.6 62.4125 6.775 62.45 8.9625 62.45C9.175 62.45 9.4 62.425 9.6125 62.4125C9.6125 55.5625 9.6125 48.7875 9.6125 41.95C9.35 41.95 9.125 41.95 8.9125 41.95C6.7625 41.95 4.625 41.9875 2.4875 41.925Z" fill="#38A9FF"/>
<path d="M62.275 25.175C59.1125 22.525 55.9625 19.8625 52.8 17.225C52.4875 16.9625 52.35 16.7 52.35 16.275C52.3625 12.9 52.3625 9.52498 52.3625 6.14998C52.3625 5.31248 52.375 4.48748 52.3625 3.64998C52.35 2.41248 51.5625 1.63748 50.3125 1.62498C47.9375 1.61248 45.5625 1.61248 43.1875 1.62498C42 1.62498 41.225 2.37498 41.1875 3.56248C41.1625 4.62498 41.175 5.68748 41.175 6.74998C41.175 6.92498 41.15 7.09998 41.125 7.36248C40.925 7.19998 40.8 7.11248 40.675 7.01248C38.8125 5.44998 36.95 3.87498 35.075 2.31248C33.975 1.38748 33.175 1.38748 32.075 2.29998C29.1875 4.72498 26.3 7.14998 23.4125 9.57498C17.225 14.7875 11.0125 20 4.825 25.225C4.475 25.5125 4.15 25.9375 4.0125 26.3625C3.6375 27.6 4.5625 28.725 5.925 28.7375C8.6375 28.75 11.3375 28.7375 14.05 28.75C14.275 28.75 14.5 28.75 14.7875 28.75C14.7875 31.5375 14.7875 34.2625 14.7875 37.0375C17.125 36.4 19.45 36.5625 21.75 36.65C24.5375 36.7625 26.9625 37.7 28.5125 40.225C28.95 40.95 29.6625 41.2625 30.525 41.2625C32.6125 41.25 34.6875 41.2375 36.775 41.275C39.425 41.3125 41.7125 43.05 42.275 45.6125C42.5 46.625 42.3125 47.7375 42.3125 48.925C43.225 48.725 44.1875 48.625 45.0625 48.2875C47.275 47.425 49.425 46.4375 51.625 45.5625C52.2375 45.3125 52.3875 44.9875 52.375 44.375C52.35 39.4375 52.3625 34.5 52.3625 29.5625C52.3625 29.3125 52.3625 29.075 52.3625 28.7625C55.3 28.7625 58.125 28.7625 60.9625 28.7625C62.1 28.7625 62.8 28.3375 63.1 27.4875C63.3875 26.6125 63.125 25.8875 62.275 25.175ZM21.7625 21.8125C21.75 18.625 24.375 16.0125 27.5625 16.0125C30.75 16.0125 33.375 18.6375 33.3625 21.825C33.35 24.9875 30.7625 27.575 27.6 27.6C24.4125 27.625 21.7625 24.9875 21.7625 21.8125ZM28.9375 35.125C28.125 35.9375 26.9625 35.95 26.2 35.2C25.4375 34.4375 25.4375 33.2875 26.25 32.4625C30.225 28.4625 34.2125 24.4875 38.2125 20.5C38.8375 19.875 39.575 19.7 40.3875 20.05C41.125 20.375 41.475 20.9875 41.5375 22.05C41.4 22.2875 41.2375 22.8125 40.9 23.1625C36.925 27.1625 32.925 31.15 28.9375 35.125ZM39.6 39.625C36.4 39.625 33.7875 37.0125 33.8125 33.8125C33.8375 30.625 36.4125 28.05 39.5875 28.05C42.775 28.05 45.3625 30.625 45.375 33.8C45.3875 37.0125 42.8 39.625 39.6 39.625ZM27.5625 23.775C26.45 23.775 25.575 22.9125 25.5625 21.8125C25.55 20.725 26.45 19.8125 27.5375 19.8125C28.6375 19.8 29.525 20.6875 29.525 21.7875C29.5375 22.9 28.675 23.775 27.5625 23.775ZM41.5875 33.85C41.5875 34.9125 40.6625 35.8375 39.6 35.85C38.5125 35.8625 37.6125 34.9625 37.6125 33.875C37.6 32.7625 38.45 31.8875 39.55 31.8625C40.675 31.85 41.6 32.7375 41.5875 33.85Z" fill="#072135"/>
</svg>
