<svg width="64" height="64" viewBox="0 0 64 64" fill="none" xmlns="http://www.w3.org/2000/svg">
<path d="M44.0499 42.2C44.0499 37.025 44.0499 31.85 44.0499 26.675C44.0499 25.0375 44.6 24.4875 46.2625 24.4875C48.1375 24.4875 50.0125 24.4875 51.8875 24.4875C53.2625 24.4875 53.8624 25.1 53.8624 26.4875C53.8624 36.5625 53.8624 46.625 53.8624 56.7C53.8624 58.0875 53.2625 58.7 51.8875 58.7C49.475 58.7 47.0749 58.6875 44.6624 58.7125C44.1624 58.7125 44.0374 58.5625 44.0374 58.075C44.0625 52.7875 44.0499 47.5 44.0499 42.2ZM41.775 30.225C39.925 30.225 38.0625 30.225 36.2125 30.225C34.85 30.225 34.25 30.8125 34.25 32.175C34.25 40.825 34.25 49.475 34.2374 58.1125C34.2374 58.5625 34.35 58.725 34.825 58.725C37.15 58.7 39.4874 58.7125 41.8125 58.7125C41.9874 58.7125 42.1499 58.6875 42.3499 58.675C42.3499 49.2 42.3499 39.7625 42.3499 30.2625C42.125 30.2375 41.95 30.225 41.775 30.225ZM32.5125 36.175C30.45 36.175 28.4375 36.175 26.4249 36.175C25.0124 36.175 24.45 36.7375 24.45 38.1375C24.45 44.7625 24.45 51.4 24.45 58.025C24.45 58.2375 24.4749 58.4375 24.4874 58.6625C27.1875 58.6625 29.825 58.6625 32.5125 58.6625C32.5125 51.15 32.5125 43.6875 32.5125 36.175ZM22.7125 58.675C22.7125 53.1125 22.7125 47.575 22.7125 42C20.65 42 18.6375 42 16.625 42C15.225 42 14.6375 42.575 14.6375 43.9625C14.6375 48.6375 14.6375 53.325 14.6375 58C14.6375 58.2 14.6375 58.3875 14.6375 58.6625C17.375 58.675 20.025 58.675 22.7125 58.675ZM5.87495 47.85C5.61245 47.85 5.24995 48.15 5.11245 48.4C4.92495 48.75 4.83745 49.1875 4.82495 49.5875C4.79995 51.1625 4.81245 52.75 4.81245 54.325C4.81245 55.25 4.79995 56.175 4.82495 57.1125C4.86245 58.2625 5.33745 58.7125 6.46245 58.7125C8.41245 58.7125 10.375 58.7 12.325 58.725C12.8125 58.7375 12.9625 58.5875 12.9625 58.1C12.9375 54.8875 12.95 51.6625 12.95 48.45C12.95 48.275 12.925 48.1 12.9125 47.85C10.525 47.825 8.19995 47.8125 5.87495 47.85Z" fill="#38A9FF"/>
<path d="M21.7125 15.3125C19.8625 13.625 19.2625 11.6875 20.2375 9.46247C20.9875 7.74997 22.3875 6.78747 24.2625 6.71247C26.55 6.62497 28.1375 7.69997 28.9875 9.88747C35.6 8.77497 42.2 7.67497 48.9375 6.54997C47.8 9.28747 47.7875 11.9375 48.95 14.6625C47.725 14.5125 46.5875 14.3875 45.4625 14.25C44.8125 14.175 44.1625 14.125 43.525 14C43.1 13.9125 42.9375 14.025 42.825 14.4375C42.2625 16.35 41.625 18.2375 41.1 20.15C40.675 21.7 39.775 22.5875 38.175 22.95C35.6 23.525 33.05 24.2375 30.475 24.85C29.875 24.9875 29.6875 25.2625 29.675 25.85C29.6125 28.6875 29.5125 31.525 29.425 34.475C28.9875 34.475 28.5 34.475 28.0125 34.475C27.2625 34.4875 26.5125 34.45 25.7625 34.5125C24.1375 34.65 22.9125 35.9 22.8 37.525C22.75 38.2875 22.8 39.0625 22.7625 39.8375C22.75 40 22.55 40.2875 22.425 40.2875C20.6125 40.3125 18.7875 40.3 16.975 40.2875C16.9375 40.2875 16.9125 40.25 16.8375 40.2C17.35 37.3375 18.375 34.55 18.3875 31.5875C18.4 28.675 18.3875 25.75 18.3875 22.6875C18.1375 22.8625 18 22.9375 17.8875 23.05C16.55 24.1875 15.2125 25.3375 13.85 26.45C13.15 27.025 12.85 27.75 12.8625 28.625C12.9 31.2125 12.95 33.8 12.975 36.3875C12.975 36.7125 12.95 37.0625 12.85 37.375C12.6375 38.0375 11.975 38.4 11.25 38.325C10.55 38.25 10.1625 37.85 10.05 37.0875C9.56246 33.7875 9.06246 30.4875 8.56246 27.2C8.41246 26.25 8.58746 25.425 9.19996 24.65C10.9125 22.4625 12.5875 20.2375 14.2875 18.025C14.8625 17.275 15.6 16.8125 16.5375 16.6C18.2125 16.225 19.9 15.775 21.7125 15.3125ZM29.225 12.25C28.875 13.85 27.9875 14.9875 26.55 15.7625C27.45 16.5375 28.325 17.25 29.1375 18.0125C30.075 18.8875 31.1625 19.1625 32.4125 19C33.425 18.8625 34.45 18.775 35.475 18.675C36.5875 18.575 37.4 18.05 37.8875 17.025C38.375 15.9875 38.875 14.9625 39.3625 13.925C39.4125 13.8125 39.4375 13.6875 39.4875 13.5C36.05 13.0875 32.675 12.675 29.225 12.25ZM53.3875 7.19997C52.575 5.82497 51.3 5.79997 50.5625 7.22497C49.4125 9.44997 49.4125 11.7625 50.5625 13.9875C51.3 15.4375 52.5875 15.3875 53.4125 13.975C54.0125 12.9375 54.1625 11.7875 54.2125 10.6125C54.1625 9.42497 54.025 8.24997 53.3875 7.19997ZM57.85 11.2375C58.0875 11.2375 58.325 11.2625 58.55 11.2375C59.0125 11.1875 59.2625 10.9 59.2875 10.4625C59.3125 10.0125 59.0625 9.67497 58.625 9.62497C58.1 9.56247 57.5625 9.56247 57.05 9.62497C56.6 9.67497 56.375 10.025 56.4 10.475C56.425 10.8875 56.6625 11.175 57.1 11.225C57.35 11.2625 57.6125 11.25 57.8625 11.2625C57.85 11.2625 57.85 11.25 57.85 11.2375ZM58.75 14.1C58.35 13.8625 57.9 13.7 57.45 13.55C56.9875 13.4 56.6375 13.5875 56.45 14.025C56.2625 14.45 56.4125 14.825 56.7875 15.0375C57.2125 15.275 57.675 15.4625 58.1375 15.6C58.7 15.7625 59.1875 15.3625 59.175 14.6375C59.1 14.5125 58.975 14.225 58.75 14.1ZM57.5375 7.27497C57.95 7.13747 58.35 6.97497 58.725 6.77497C59.2875 6.48747 59.375 5.77497 58.9125 5.39997C58.2375 4.87497 57.6875 5.43747 57.125 5.66247C56.8 5.78747 56.5625 6.11247 56.4 6.24997C56.3625 7.06247 56.925 7.47497 57.5375 7.27497Z" fill="#072135"/>
</svg>
